# xmcd CD database file
#
# Track frame offsets:
#	150
#	19891
#	42741
#	62818
#	84065
#	138828
#
# Disc length: 2062 seconds
#
# Revision: 0
# Processed by: cddbd v1.5.2PL0 Copyright (c) Steve Scherf et al.
# Submitted via: CDex 1.51
#
DISCID=48080c06
DTITLE=Wheel Works, The - unknown
DYEAR=1900
DGENRE=New Age
TTITLE0=Past to Present
TTITLE1=Personal Strangers
TTITLE2=Descender
TTITLE3=See All the World
TTITLE4=How to Fly a Washing Machine
TTITLE5=Sequential
EXTD=
EXTT0=
EXTT1=
EXTT2=
EXTT3=
EXTT4=
EXTT5=
PLAYORDER=
